HIERARCHY
ROOT Hips
{
	OFFSET 0.00000 0.00000 0.00000
	CHANNELS 6 Xposition Yposition Zposition Zrotation Yrotation Xrotation 
	JOINT LHipJoint
	{
		OFFSET 0 0 0
		CHANNELS 3 Zrotation Yrotation Xrotation
		JOINT LeftUpLeg
		{
			OFFSET 1.29432 -1.88279 0.59910
			CHANNELS 3 Zrotation Yrotation Xrotation
			JOINT LeftLeg
			{
				OFFSET 2.63039 -7.22694 0.00000
				CHANNELS 3 Zrotation Yrotation Xrotation
				JOINT LeftFoot
				{
					OFFSET 2.70674 -7.43672 0.00000
					CHANNELS 3 Zrotation Yrotation Xrotation
					JOINT LeftToeBase
					{
						OFFSET 0.15066 -0.41394 2.09027
						CHANNELS 3 Zrotation Yrotation Xrotation
						End Site
						{
							OFFSET 0.00000 -0.00000 1.07518
						}
					}
				}
			}
		}
	}
	JOINT RHipJoint
	{
		OFFSET 0 0 0
		CHANNELS 3 Zrotation Yrotation Xrotation
		JOINT RightUpLeg
		{
			OFFSET -1.37068 -1.88279 0.59910
			CHANNELS 3 Zrotation Yrotation Xrotation
			JOINT RightLeg
			{
				OFFSET -2.57023 -7.06166 0.00000
				CHANNELS 3 Zrotation Yrotation Xrotation
				JOINT RightFoot
				{
					OFFSET -2.76461 -7.59570 0.00000
					CHANNELS 3 Zrotation Yrotation Xrotation
					JOINT RightToeBase
					{
						OFFSET -0.24175 -0.64785 2.19719
						CHANNELS 3 Zrotation Yrotation Xrotation
						End Site
						{
							OFFSET -0.00000 -0.00000 1.14803
						}
					}
				}
			}
		}
	}
	JOINT LowerBack
	{
		OFFSET 0 0 0
		CHANNELS 3 Zrotation Yrotation Xrotation
		JOINT Spine
		{
			OFFSET -0.03138 2.03983 -0.23106
			CHANNELS 3 Zrotation Yrotation Xrotation
			JOINT Spine1
			{
				OFFSET -0.00325 2.06238 -0.06878
				CHANNELS 3 Zrotation Yrotation Xrotation
				JOINT Neck
				{
					OFFSET 0 0 0
					CHANNELS 3 Zrotation Yrotation Xrotation
					JOINT Neck1
					{
						OFFSET -0.00002 1.75318 0.18090
						CHANNELS 3 Zrotation Yrotation Xrotation
						JOINT Head
						{
							OFFSET 0.08806 1.75856 -0.25387
							CHANNELS 3 Zrotation Yrotation Xrotation
							End Site
							{
								OFFSET 0.02554 1.78597 -0.10684
							}
						}
					}
				}
				JOINT LeftShoulder
				{
					OFFSET 0 0 0
					CHANNELS 3 Zrotation Yrotation Xrotation
					JOINT LeftArm
					{
						OFFSET 3.09657 1.33597 -0.04414
						CHANNELS 3 Zrotation Yrotation Xrotation
						JOINT LeftForeArm
						{
							OFFSET 5.34298 -0.00000 -0.00000
							CHANNELS 3 Zrotation Yrotation Xrotation
							JOINT LeftHand
							{
								OFFSET 3.67262 -0.00000 -0.00000
								CHANNELS 3 Zrotation Yrotation Xrotation
								JOINT LeftFingerBase
								{
									OFFSET 0 0 0
									CHANNELS 3 Zrotation Yrotation Xrotation
									JOINT LeftHandIndex1
									{
										OFFSET 0.59930 -0.00000 -0.00000
										CHANNELS 3 Zrotation Yrotation Xrotation
										End Site
										{
											OFFSET 0.48317 -0.00000 -0.00000
										}
									}
								}
								JOINT LThumb
								{
									OFFSET 0 0 0
									CHANNELS 3 Zrotation Yrotation Xrotation
									End Site
									{
										OFFSET 0.49055 -0.00000 0.49055
									}
								}
							}
						}
					}
				}
				JOINT RightShoulder
				{
					OFFSET 0 0 0
					CHANNELS 3 Zrotation Yrotation Xrotation
					JOINT RightArm
					{
						OFFSET -3.16460 1.32273 -0.23382
						CHANNELS 3 Zrotation Yrotation Xrotation
						JOINT RightForeArm
						{
							OFFSET -5.54967 -0.01834 0.03348
							CHANNELS 3 Zrotation Yrotation Xrotation
							JOINT RightHand
							{
								OFFSET -3.69401 -0.00000 0.00000
								CHANNELS 3 Zrotation Yrotation Xrotation
								JOINT RightFingerBase
								{
									OFFSET 0 0 0
									CHANNELS 3 Zrotation Yrotation Xrotation
									JOINT RightHandIndex1
									{
										OFFSET -0.63811 -0.00000 0.00000
										CHANNELS 3 Zrotation Yrotation Xrotation
										End Site
										{
											OFFSET -0.51446 -0.00000 0.00000
										}
									}
								}
								JOINT RThumb
								{
									OFFSET 0 0 0
									CHANNELS 3 Zrotation Yrotation Xrotation
									End Site
									{
										OFFSET -0.52232 -0.00000 0.52232
									}
								}
							}
						}
					}
				}
			}
		}
	}
}
MOTION
Frames: 6
Frame Time: .0083333
9.6198 13.2310 5.1010 124.3320 -85.2952 -149.1820 0.0000 0.0000 0.0000 -6.3958 -8.6998 -42.3869 9.6145 17.1873 58.1921 0.0541 9.3052 7.4524 2.5526 9.9330 28.7600 0.0000 0.0000 0.0000 2.5877 4.6268 -46.6256 -10.9846 -17.9275 62.7316 -0.2092 -5.5532 8.4544 -0.0388 1.2706 -3.4938 -2.1368 1.2799 34.2387 -1.2201 -0.8589 13.0108 0.1733 -1.1892 -3.1100 -10.3634 -7.2614 -9.7365 16.2418 -17.0459 35.2268 5.7555 -7.4321 16.9533 0.0000 -0.0000 0.0000 -81.6225 -35.3025 53.8830 22.4554 -33.4879 -6.8354 -0.0000 -0.0000 28.2148 25.9078 27.5063 12.6443 -7.1250 0.0000 -0.0000 -5.1400 59.9725 -1.8810 0.0000 -0.0000 0.0000 87.8401 32.1778 48.2218 -26.2877 37.4914 -9.0622 0.0000 0.0000 22.3769 -42.0257 31.8324 -25.4233 7.1250 -0.0000 -0.0000 -5.6028 9.7371 -6.4982
9.6194 13.2298 5.0966 120.3850 -85.1713 -145.2240 0.0000 0.0000 0.0000 -6.7943 -8.7868 -42.3631 9.5875 17.1713 58.1006 0.0824 9.0824 7.7819 2.2874 9.4407 27.1838 0.0000 0.0000 0.0000 2.1705 4.5816 -46.6875 -10.9925 -17.9314 62.7573 -0.2011 -5.7242 8.3582 -0.0176 0.8559 -2.3525 -3.9555 1.6674 33.5795 -0.3629 -0.9061 13.5133 2.0221 -1.3577 -2.2907 -10.8693 -7.2035 -10.4525 15.6403 -16.4235 35.2588 5.6742 -7.2262 16.9694 0.0000 -0.0000 0.0000 -82.6939 -36.0472 52.2927 22.1988 -33.2010 -6.6944 -0.0000 -0.0000 29.6987 25.4784 27.5396 12.4250 -7.1250 0.0000 -0.0000 -5.6464 59.9029 -2.0576 0.0000 -0.0000 0.0000 86.9289 33.0193 49.2579 -26.2738 37.4778 -9.0538 0.0000 0.0000 22.2243 -40.8593 33.0394 -25.2487 7.1250 -0.0000 -0.0000 -4.6450 10.5953 -5.4361
9.6197 13.2360 5.0952 117.2580 -85.1432 -141.9970 0.0000 0.0000 0.0000 -7.0673 -8.9033 -42.4229 9.5642 17.1574 58.0215 0.0907 8.9787 7.8578 2.1411 9.1541 26.2785 0.0000 0.0000 0.0000 1.8772 4.5231 -46.7446 -10.9874 -17.9289 62.7408 -0.1907 -5.8847 8.2208 -0.0209 0.9330 -2.5644 -1.1755 1.3144 34.8431 -1.8398 -0.5010 12.4497 -1.0848 -0.9184 -3.9488 -10.4123 -7.6666 -8.9565 16.9555 -18.0338 34.9914 5.9076 -7.8469 16.9879 0.0000 -0.0000 0.0000 -82.0918 -35.0371 55.9072 22.2510 -33.2596 -6.7230 -0.0000 -0.0000 29.3583 25.8201 27.5883 12.6301 -7.1250 0.0000 -0.0000 -5.2786 60.0369 -1.9400 0.0000 -0.0000 0.0000 88.1015 30.9240 45.9968 -26.3903 37.5915 -9.1247 0.0000 0.0000 23.4667 -41.3697 33.1669 -25.7248 7.1250 -0.0000 -0.0000 -4.8798 10.9402 -5.7360
9.6223 13.2381 5.0965 118.1820 -85.3460 -143.0100 0.0000 0.0000 0.0000 -6.9049 -8.9552 -42.3129 9.5552 17.1520 57.9910 0.0794 9.0310 7.7043 2.2063 9.2833 26.6855 0.0000 0.0000 0.0000 2.1013 4.5009 -46.5280 -10.9689 -17.9198 62.6805 -0.1914 -5.9657 8.2568 -0.0312 1.1405 -3.1355 -1.8405 1.3433 34.7373 -1.3098 -0.6603 12.6092 -0.1311 -1.0470 -3.7263 -10.6405 -7.5389 -9.1908 16.4944 -17.5043 34.9895 5.8340 -7.6690 16.8658 -0.0000 -0.0000 0.0000 -82.6959 -35.1646 54.9738 22.0460 -33.0290 -6.6109 -0.0000 -0.0000 28.8998 27.0319 27.4900 13.2527 -7.1250 0.0000 -0.0000 -3.8369 60.2309 -1.4268 -0.0000 -0.0000 0.0000 87.5650 31.3636 47.1104 -26.3229 37.5258 -9.0837 0.0000 0.0000 23.3675 -41.9206 32.5191 -25.7663 7.1250 -0.0000 -0.0000 -5.3548 10.4542 -6.2624
9.6225 13.2391 5.0939 120.0420 -85.4520 -144.8930 0.0000 0.0000 0.0000 -6.7015 -8.8971 -42.2980 9.5576 17.1534 57.9991 0.0858 8.9337 7.7538 2.2647 9.3969 27.0451 0.0000 0.0000 0.0000 2.3474 4.4577 -46.4873 -10.9544 -17.9127 62.6333 -0.2002 -5.8621 8.3787 -0.0243 1.0065 -2.7668 -1.9288 1.3427 34.5244 -1.1414 -0.6862 12.7788 0.0955 -1.0797 -3.4647 -10.6645 -7.4930 -9.3984 16.3587 -17.3189 34.9705 5.8044 -7.5879 16.8444 0.0000 0.0000 0.0000 -82.8573 -35.3830 54.6370 21.9586 -32.9303 -6.5633 -0.0000 -0.0000 28.6586 27.5821 27.5808 13.5967 -7.1250 0.0000 -0.0000 -3.2357 60.4634 -1.2208 0.0000 0.0000 0.0000 87.4562 31.6886 47.5024 -26.2473 37.4518 -9.0376 0.0000 0.0000 23.4189 -42.5761 31.4938 -25.6398 7.1250 -0.0000 -0.0000 -5.9919 9.5871 -6.9411
9.6223 13.2419 5.0894 120.1690 -85.3118 -144.9740 0.0000 0.0000 0.0000 -6.7427 -8.7601 -42.3426 9.5648 17.1578 58.0238 0.0688 9.0823 7.5606 2.5275 9.8878 28.6141 0.0000 0.0000 0.0000 2.2480 4.6218 -46.5431 -10.9509 -17.9110 62.6222 -0.1934 -5.9462 8.2846 -0.0096 0.6319 -1.7364 -2.3799 1.3883 34.3423 -1.0541 -0.7678 12.8406 0.4484 -1.1431 -3.3262 -10.6995 -7.3897 -9.5654 16.1274 -17.0196 35.0027 5.7604 -7.4746 16.8000 0.0000 -0.0000 0.0000 -82.8252 -35.4109 53.9456 21.9807 -32.9552 -6.5753 -0.0000 -0.0000 29.3372 26.8840 27.7902 13.2990 -7.1250 0.0000 -0.0000 -4.1430 60.5105 -1.5684 0.0000 -0.0000 0.0000 87.5113 31.8604 48.2747 -26.1840 37.3898 -8.9991 0.0000 0.0000 23.3748 -43.1914 30.7560 -25.6445 7.1250 -0.0000 -0.0000 -6.5276 9.0161 -7.5151
